<svg version="1.1" id="Layer_1" xmlns="http://www.w3.org/2000/svg" xmlns:xlink="http://www.w3.org/1999/xlink" x="0px" y="0px"
	 width="100%" viewBox="0 0 651 326" enable-background="new 0 0 651 326" xml:space="preserve">
<path fill="#000000" opacity="1.000000" stroke="none" 
	d="
M494.000000,327.000000 
	C330.833374,327.000000 168.166733,326.984955 5.500179,327.093842 
	C1.751071,327.096375 0.901150,326.250061 0.905321,322.500031 
	C1.023040,216.666840 1.021258,110.833481 0.904600,5.000299 
	C0.900826,1.576689 1.575877,0.903933 4.999850,0.905609 
	C219.333084,1.010554 433.666351,1.010542 647.999573,0.905685 
	C651.422363,0.904011 652.099243,1.574983 652.095459,4.999753 
	C651.978760,110.999603 651.978821,216.999634 652.095398,322.999481 
	C652.099182,326.422577 651.426270,327.106934 648.000183,327.097504 
	C596.833740,326.956451 545.666809,327.000000 494.000000,327.000000 
z"/>
<path fill="#503527" opacity="1.000000" stroke="none" 
	d="
M381.295654,138.402039 
	C379.025970,129.482010 380.047852,121.042061 382.306396,112.554558 
	C384.526886,104.210052 382.308624,101.585297 374.608765,101.890701 
	C369.072662,102.110275 367.619598,99.106651 369.780060,93.536156 
	C372.058258,87.662064 376.637207,83.392075 380.197876,78.417229 
	C381.455017,76.660744 382.419617,75.888969 379.432037,74.674751 
	C376.475494,73.473145 378.455261,70.852173 379.463898,69.216217 
	C384.205658,61.525375 390.284210,54.877914 396.897919,48.818447 
	C405.973724,40.503239 415.457153,32.705791 427.648254,29.116646 
	C438.236176,25.999500 448.804199,23.172859 459.872070,26.555799 
	C465.053864,28.139637 469.656097,25.353821 474.505371,24.630991 
	C495.470703,21.505894 514.156067,26.035784 529.945007,40.509743 
	C545.486206,54.756634 555.807434,72.417412 562.865784,92.117523 
	C563.089783,92.742714 563.278076,93.382385 563.450439,94.024055 
	C564.195190,96.795502 565.132202,100.351624 563.194458,102.117950 
	C560.956726,104.157799 559.154846,100.324905 556.950562,99.523705 
	C556.047852,99.195602 555.211426,98.685242 553.680908,97.930283 
	C554.933289,109.951202 552.029602,121.060638 550.896362,132.783127 
	C551.068176,135.997360 551.853882,138.965210 547.615051,139.607086 
	C545.547058,139.920227 546.797180,142.518723 545.213196,143.759857 
	C542.632141,147.444641 540.997314,151.824524 535.183533,150.765289 
	C534.026306,149.918167 533.735718,149.002563 533.629517,147.664307 
	C533.647766,146.707703 533.746521,146.087540 533.658630,145.162933 
	C533.544617,144.458939 533.486938,144.051926 533.380249,143.327454 
	C533.210632,142.137451 533.127136,141.260239 532.973145,140.036591 
	C532.861938,137.016754 532.658081,134.345673 533.177124,131.359283 
	C533.488831,129.820816 533.793335,128.607452 532.975098,127.217018 
	C532.800720,127.010605 532.399353,126.728020 532.169006,126.652664 
	C531.766663,126.579666 531.594666,126.582016 531.157776,126.670547 
	C530.293762,127.045525 529.657837,127.268677 529.114563,127.660034 
	C521.973511,132.804459 519.387451,132.526184 513.690430,125.866348 
	C507.963409,119.171455 503.919067,111.227707 498.007660,104.663490 
	C496.891724,103.424324 495.895447,102.002701 494.292908,101.415504 
	C493.146240,100.995369 493.536713,102.052124 493.508667,102.971352 
	C495.014038,108.610184 498.352631,113.079712 500.085510,118.256927 
	C501.435638,122.290527 503.739075,126.213448 501.203278,130.935287 
	C496.630157,134.010681 493.189911,131.301941 490.137665,128.951630 
	C484.845184,124.876266 480.842102,119.516739 477.009125,114.066574 
	C473.962158,109.734123 471.409668,105.050240 467.931427,100.946899 
	C466.627930,101.793152 467.679382,102.813744 467.470459,104.035011 
	C468.564911,110.324272 468.341766,116.262344 467.943146,122.601318 
	C463.736603,129.045380 459.995300,129.350723 455.280884,123.987816 
	C448.728638,116.534302 443.136414,108.305466 436.599213,100.836266 
	C434.286713,98.194122 431.735504,95.909294 428.767365,93.995491 
	C426.047638,92.241837 424.143921,92.793335 422.546722,95.374603 
	C420.676239,98.397423 419.800659,101.689026 420.015686,105.628128 
	C420.559143,112.766304 418.687714,119.220520 417.515533,126.177582 
	C417.143799,128.085144 416.005310,129.149246 415.370026,130.504715 
	C412.874237,135.829987 412.814209,135.801849 407.457214,132.792542 
	C406.692444,132.552246 406.259857,132.438568 405.534241,132.251556 
	C404.877686,132.060425 404.506500,131.979034 403.848389,131.996292 
	C403.396454,132.142273 403.221527,132.237823 402.825806,132.560974 
	C400.521332,137.478119 401.888763,142.432053 401.503967,147.251846 
	C401.327454,149.463181 401.993591,151.925964 399.161804,153.535065 
	C398.274506,153.760025 397.762634,153.726974 396.921509,153.399307 
	C395.564941,152.527100 395.165771,151.277618 393.926392,150.300003 
	C392.422241,148.907043 391.715271,147.404877 390.791229,145.631561 
	C390.206726,144.620651 389.803986,143.887833 389.575775,143.110367 
	C388.638977,139.919281 387.122375,137.815445 383.311737,139.268997 
	C382.737946,139.487869 382.045349,139.060898 381.295654,138.402039 
z"/>
<path fill="#F7C4A5" opacity="1.000000" stroke="none" 
	d="
M535.116150,142.746597 
	C534.745483,143.487534 534.685242,143.920288 534.746216,144.664139 
	C535.046753,145.138153 535.226074,145.301056 535.164551,145.736038 
	C535.022034,147.037018 535.120483,148.065918 535.373535,149.457443 
	C538.731018,154.429886 538.150208,159.321548 536.556152,164.679352 
	C536.404053,168.033707 535.226562,170.766876 534.658875,174.044067 
	C534.217041,180.889618 532.589294,187.152390 531.874084,193.552872 
	C531.557434,196.386658 530.189087,198.905838 527.154785,200.643585 
	C526.237427,201.729721 525.659729,202.567719 525.112427,203.729065 
	C525.733643,205.361496 525.140198,206.444138 524.244446,207.795868 
	C520.801025,209.810883 520.357666,213.478485 518.447937,216.130493 
	C510.052734,227.788971 499.342957,236.663269 486.697083,243.294464 
	C485.494385,243.925140 484.410919,244.596924 483.242126,245.859863 
	C479.046478,248.582565 474.640778,248.916290 469.823090,249.207062 
	C468.944916,249.487991 468.427795,249.563339 467.511902,249.507874 
	C465.931671,249.002594 464.704132,248.659180 463.123413,248.188339 
	C458.652191,245.188950 453.702728,244.163696 449.271362,241.923508 
	C434.700836,234.557724 423.464813,223.770874 415.012970,209.925354 
	C414.669556,209.362778 414.106903,208.965195 413.334900,208.285507 
	C412.191620,207.092743 411.734253,205.985550 411.854248,204.313400 
	C411.186584,202.692459 410.491638,201.437485 409.521118,200.019043 
	C406.610504,198.470154 405.668182,195.965164 405.245453,193.307404 
	C404.177643,186.594177 402.619873,179.966736 401.641296,172.828873 
	C400.662292,170.394791 400.768768,168.191788 400.435852,165.652191 
	C399.826355,161.762512 398.732941,158.316666 399.687378,154.301773 
	C402.136475,149.016800 400.617615,143.829147 400.966125,138.797775 
	C401.158386,136.021881 400.675354,133.162537 402.738281,130.351364 
	C403.012543,130.006546 402.998779,130.000000 403.003052,130.006866 
	C403.693726,129.394974 404.469238,129.262268 405.634094,129.873871 
	C405.973969,130.481537 406.125946,130.732544 406.606873,130.991699 
	C409.064026,132.783569 410.714905,135.541016 414.433472,135.409027 
	C416.619965,138.405350 418.937469,139.795792 422.566772,139.067688 
	C424.876282,138.604355 427.526337,138.552551 429.296692,141.352783 
	C429.093842,143.571976 427.646881,144.416748 426.231598,145.321304 
	C419.780060,149.444824 416.535187,155.411499 417.139526,162.988571 
	C417.759064,170.756317 421.855530,176.327545 429.257111,179.245331 
	C430.029633,179.549850 430.758270,179.963394 431.843323,180.443588 
	C434.228271,182.338562 436.352051,183.506805 439.080292,180.985596 
	C445.459717,178.482056 450.628387,175.090500 453.744965,169.123642 
	C454.363190,167.940063 455.343445,166.708786 455.290955,165.493057 
	C454.968048,158.013031 460.295319,156.342819 465.862091,155.333054 
	C471.088440,154.385025 476.165680,154.964508 480.095764,159.825134 
	C480.917236,164.048752 481.443024,167.964294 484.091431,171.527603 
	C488.554047,176.428787 492.954681,180.399292 499.953217,180.324768 
	C507.764496,180.241562 514.680054,176.276443 517.938049,169.166962 
	C521.230835,161.981552 519.671936,154.507599 514.085144,148.445663 
	C511.885132,146.058548 508.155975,145.072327 507.566589,140.995544 
	C509.272156,138.806122 511.530579,138.586090 513.517639,139.087112 
	C518.015808,140.221313 519.853271,138.321686 520.364624,133.799423 
	C522.991760,131.838638 525.715210,130.665405 527.943604,128.661423 
	C529.619141,127.154655 531.556030,127.225060 533.714722,128.789154 
	C534.190857,129.228088 534.358093,129.427551 534.694336,129.978928 
	C534.771301,133.578384 534.679077,136.825943 534.696228,140.510468 
	C535.340637,141.307785 535.547546,141.804825 535.116150,142.746597 
z"/>
<path fill="#201A15" opacity="1.000000" stroke="none" 
	d="
M219.779816,178.228821 
	C223.723282,182.527344 227.408768,186.582718 231.113403,190.620514 
	C232.513153,192.146164 234.020538,193.235199 236.352737,192.726395 
	C241.345200,191.637238 245.165497,193.769272 247.842468,197.773682 
	C249.986237,200.980530 252.280167,203.993149 255.088211,206.630402 
	C256.444214,207.903961 257.617645,209.401306 257.830414,211.283279 
	C258.543060,217.585556 262.832520,221.935272 267.611176,224.417755 
	C276.180389,228.869415 280.961609,236.792587 287.411560,243.150925 
	C291.055817,246.743454 294.102722,250.942780 297.409760,254.876297 
	C298.816254,256.549194 300.609955,257.217316 302.748413,256.935181 
	C303.567474,256.827148 304.399200,256.339722 305.172699,256.438019 
	C310.998657,257.178284 315.230988,261.294220 320.132446,263.917847 
	C323.559723,265.752380 324.331268,270.685608 322.700226,273.319824 
	C319.048584,279.217407 319.850861,287.430115 313.108429,291.593292 
	C311.227722,292.754547 310.966797,294.891357 310.140076,296.674225 
	C307.325714,302.743469 303.463104,304.946411 297.474121,303.840332 
	C289.476440,302.363220 284.921509,298.789398 285.193329,292.408813 
	C285.559814,283.806366 279.679474,278.823639 275.699097,272.600647 
	C272.645996,267.827393 269.012421,264.736603 263.034851,264.322052 
	C260.613251,264.154114 258.029266,261.801208 259.430237,258.914307 
	C261.201050,255.265167 258.704071,254.002136 256.716034,252.519623 
	C251.156311,248.373581 245.610718,243.939850 240.546234,239.485291 
	C235.049194,234.650284 229.005432,230.160980 223.940857,224.676651 
	C219.942780,220.347214 214.458786,217.224884 215.046204,210.090805 
	C215.113632,209.271942 213.721619,208.264679 212.900848,207.451126 
	C200.503433,195.162903 188.189453,182.791382 175.698364,170.595688 
	C170.168945,165.197052 163.468063,160.332794 160.023041,153.318207 
	C153.083130,139.187546 140.190598,130.460266 130.281326,119.072372 
	C119.265228,106.412514 106.782906,95.041664 95.313164,82.760124 
	C80.324257,66.710342 65.200363,50.796921 49.664379,35.279541 
	C46.612587,32.231407 46.009228,28.863560 47.988129,25.414249 
	C49.390759,22.969395 54.850407,23.690006 57.928131,26.450661 
	C60.033707,28.339312 61.918388,30.471888 63.947063,32.448990 
	C76.342690,44.529491 88.567917,56.792572 101.202072,68.618607 
	C116.868057,83.282555 132.370117,98.106422 147.695938,113.125618 
	C160.398026,125.573570 173.470612,137.643478 186.379730,149.880157 
	C186.742416,150.223969 187.055267,150.725922 187.487671,150.875305 
	C201.324188,155.655579 208.328339,168.535446 218.819122,177.274765 
	C219.074295,177.487320 219.293472,177.743073 219.779816,178.228821 
z"/>
<path fill="#E9E8E8" opacity="1.000000" stroke="none" 
	d="
M468.676147,248.493256 
	C472.699219,245.938751 477.416473,246.844330 481.697083,244.708008 
	C488.874939,241.136826 495.993530,238.268982 502.046936,233.311493 
	C510.785858,226.154678 519.566650,219.139984 522.763550,207.161316 
	C523.549377,206.069672 524.152832,205.295441 524.949585,204.286804 
	C528.976685,203.009232 529.386353,206.001984 529.937073,208.385300 
	C533.438904,223.540344 530.204285,237.119263 519.742188,248.685394 
	C511.555084,257.736420 504.718323,267.627686 499.333527,279.374786 
	C494.594727,274.454956 490.107574,269.796387 485.281403,265.168640 
	C483.333252,265.387634 482.332947,264.368530 481.058685,263.143921 
	C477.747101,260.404541 474.934418,257.655762 472.187317,254.342194 
	C470.665771,252.434250 468.449768,251.386688 468.676147,248.493256 
z"/>
<path fill="#E9E8E8" opacity="1.000000" stroke="none" 
	d="
M463.837952,246.167511 
	C465.023132,246.925537 466.035126,247.361588 467.244873,248.068085 
	C467.884033,250.862839 466.118805,252.288025 464.628845,253.780838 
	C460.447662,257.970001 456.151306,262.040222 451.322571,266.026123 
	C445.957947,269.688263 442.341705,274.734283 437.287079,278.970123 
	C433.877014,273.130920 430.926086,267.139038 427.194336,261.602417 
	C422.465424,254.586380 416.443207,248.628174 411.754395,241.546890 
	C404.899414,231.194244 403.329254,220.408447 406.777588,208.664902 
	C407.096527,207.578827 407.093170,206.398132 407.600281,205.073471 
	C410.265564,205.249802 411.740570,206.539215 412.369873,208.799515 
	C412.815979,210.401871 413.701324,211.717743 415.298340,212.986206 
	C425.587921,229.197433 440.165680,238.997025 457.842285,244.673294 
	C459.766571,245.291199 461.762726,245.275482 463.837952,246.167511 
z"/>
<path fill="#A00B09" opacity="1.000000" stroke="none" 
	d="
M472.881866,252.672043 
	C476.428528,255.389084 479.372986,258.314941 482.218201,261.839813 
	C482.210144,267.534668 477.044678,267.503723 474.717163,269.095490 
	C475.579529,268.326874 477.206940,268.011658 479.020142,269.951965 
	C481.205078,273.653534 483.129791,277.113525 485.411346,280.319550 
	C486.949097,282.480438 486.886871,283.902039 484.890778,285.718567 
	C482.958344,287.477142 481.438080,289.688690 479.446716,291.855316 
	C476.843597,292.057434 475.586121,290.393951 474.497345,288.810272 
	C471.067596,283.821594 467.236816,279.104004 464.042053,273.534607 
	C462.513641,271.134979 459.695892,272.727356 457.944946,270.782715 
	C455.553528,270.261017 453.575928,269.685242 452.126221,267.504639 
	C452.831543,262.889954 457.017303,261.869629 459.911072,259.145142 
	C460.333466,258.824829 460.501984,258.700073 461.163757,258.207031 
	C461.820435,257.719696 461.983887,257.600677 462.395813,257.311707 
	C462.812775,257.035126 462.981232,256.928497 463.405884,256.671326 
	C464.006683,256.328644 464.357025,256.147552 464.980408,255.845596 
	C465.437531,255.653366 465.627380,255.593246 466.100098,255.436844 
	C467.351227,254.962173 468.085114,254.241104 469.137085,253.415619 
	C470.349609,252.524185 471.435211,252.471451 472.881866,252.672043 
z"/>
<path fill="#DEAC8E" opacity="1.000000" stroke="none" 
	d="
M533.139038,173.894638 
	C532.903748,170.733810 533.664307,168.148438 534.692139,165.280731 
	C538.362671,161.155563 543.450439,158.732956 544.324463,152.688461 
	C544.798279,149.411606 543.145081,146.517838 543.726501,143.048538 
	C545.026672,140.956512 544.410583,137.041092 548.535889,138.735901 
	C549.127380,137.029816 549.718872,135.323730 550.580383,133.418671 
	C559.763489,140.407532 561.720581,156.899918 550.051025,169.516418 
	C544.690308,176.299591 538.943726,177.863632 533.139038,173.894638 
z"/>
<path fill="#DEAC8E" opacity="1.000000" stroke="none" 
	d="
M401.776276,164.772308 
	C403.105286,167.096466 403.067108,169.333160 402.927582,172.013123 
	C398.690125,176.680069 393.089111,176.018478 388.269165,170.439621 
	C378.597595,161.672348 376.224182,151.379211 380.915588,138.458862 
	C384.463654,138.868515 385.984283,136.377441 387.943970,133.592911 
	C389.469330,137.433746 390.775116,140.721710 392.138000,144.370850 
	C391.952057,149.319687 391.852875,153.883270 394.233673,158.072327 
	C395.930664,161.058273 399.686584,161.709778 401.776276,164.772308 
z"/>
<path fill="#382920" opacity="1.000000" stroke="none" 
	d="
M532.844116,173.887939 
	C538.891235,174.756210 544.136597,172.853561 549.517944,169.868607 
	C549.975647,175.017853 553.100464,179.871292 551.000854,185.433670 
	C549.396729,189.683441 547.427979,192.438919 542.484619,191.949844 
	C539.401428,191.644821 537.088623,192.741287 535.549744,195.678802 
	C533.918884,198.791992 531.187439,200.604721 527.200806,200.898438 
	C531.174622,192.559021 530.490662,183.102798 532.844116,173.887939 
z"/>
<path fill="#382920" opacity="1.000000" stroke="none" 
	d="
M387.989166,170.542023 
	C392.588196,171.654953 396.970337,174.507065 402.557648,172.618973 
	C405.824677,177.945541 405.450989,184.194778 406.865906,190.040405 
	C407.598297,193.066315 408.025970,196.162216 409.246185,199.456512 
	C406.527008,200.262222 403.880981,199.527481 401.514984,198.536438 
	C397.545868,196.873886 394.451782,194.315125 394.952301,189.184372 
	C395.258118,186.049423 395.655334,182.507812 390.283356,183.708237 
	C388.088013,184.198837 387.254150,182.369568 387.003479,180.278793 
	C386.618744,177.069733 387.700897,174.064011 387.989166,170.542023 
z"/>
<path fill="#A00B09" opacity="1.000000" stroke="none" 
	d="
M473.263428,298.581543 
	C469.573303,305.181885 469.440369,305.186279 464.691986,300.061310 
	C460.519073,295.557404 456.465179,290.924988 452.045837,286.674652 
	C449.466492,284.193970 448.526947,282.276672 451.436890,279.460571 
	C452.962952,277.983765 454.025146,276.027618 455.584473,274.123779 
	C461.163177,276.105682 472.894318,292.394257 473.263428,298.581543 
z"/>
<path fill="#DEAB40" opacity="1.000000" stroke="none" 
	d="
M473.473267,298.808350 
	C467.535004,290.806091 461.889465,282.671265 456.058014,274.248047 
	C455.872131,273.959595 455.993713,273.492126 456.059021,273.259644 
	C458.673798,271.261932 461.560974,272.260468 464.648132,272.040222 
	C469.615143,278.498657 474.231873,284.945404 479.002625,291.700775 
	C477.965485,294.721344 475.920898,296.743164 473.473267,298.808350 
z"/>
<path fill="#CB9C3E" opacity="1.000000" stroke="none" 
	d="
M473.059296,252.456146 
	C472.317566,253.356720 471.427460,253.974136 470.241760,254.724457 
	C468.332153,254.558182 467.422180,255.620682 466.335754,256.949799 
	C466.179779,257.256042 466.052612,257.208557 466.075317,257.144592 
	C465.589813,257.407654 464.994873,257.488831 464.229126,257.880432 
	C464.023956,258.093384 464.012146,258.027252 464.045410,258.031982 
	C463.801086,258.226837 463.548492,258.445984 463.170288,258.894226 
	C463.023315,259.098389 463.140991,259.047668 463.166565,259.106384 
	C462.833008,259.246613 462.488861,259.369751 462.136841,259.808868 
	C458.935425,262.327057 455.756744,264.571075 452.289856,267.000183 
	C451.705475,267.014404 451.409332,266.843536 451.054138,266.418243 
	C454.935822,259.108215 461.642517,254.598984 467.204132,248.577240 
	C467.749390,248.376007 468.051300,248.352310 468.568268,248.208969 
	C470.162415,249.491348 471.536682,250.832169 473.059296,252.456146 
z"/>
<path fill="#DEAB40" opacity="1.000000" stroke="none" 
	d="
M479.482391,270.218506 
	C477.085144,270.151154 475.041809,270.000702 472.434296,269.808746 
	C475.444672,266.551849 479.037231,265.015961 482.245026,262.432159 
	C483.715454,262.484528 484.219818,263.557190 484.832336,264.915497 
	C484.312866,267.954224 482.685364,269.676666 479.482391,270.218506 
z"/>
<path fill="#CCCDCD" opacity="1.000000" stroke="none" 
	d="
M414.320984,213.773651 
	C411.013214,211.903168 410.659637,208.033188 408.119781,205.194046 
	C408.656036,203.297668 410.077606,204.242401 411.515839,203.959015 
	C412.906067,204.510971 413.708069,205.268677 414.136536,206.757980 
	C415.071777,209.164032 416.311798,211.212463 414.320984,213.773651 
z"/>
<path fill="#CB9C3E" opacity="1.000000" stroke="none" 
	d="
M464.869690,271.700378 
	C462.659027,275.140747 459.725586,273.854218 456.498108,273.091125 
	C456.448242,272.394684 456.772217,271.762238 457.380798,270.851044 
	C460.107208,270.072235 462.595520,269.148682 464.869690,271.700378 
z"/>
<path fill="#F6C4A5" opacity="1.000000" stroke="none" 
	d="
M415.681946,127.358154 
	C416.711121,119.981949 417.500092,112.964256 418.401184,105.518005 
	C419.235443,103.600395 420.101318,102.104301 420.245422,100.466949 
	C420.794861,94.222855 427.449432,91.942924 432.956207,97.016647 
	C434.065094,98.038338 435.044373,99.138756 435.403931,101.060112 
	C435.362701,104.438683 435.597687,107.409767 435.813416,110.397224 
	C436.125946,114.724754 434.036652,116.478767 430.073853,115.006622 
	C426.945404,113.844452 426.139648,114.790688 426.105164,117.648018 
	C426.089081,118.982727 425.973083,120.315590 425.109131,121.811127 
	C424.235260,123.124840 422.933716,123.264748 422.092010,124.061935 
	C421.720825,124.413490 421.389648,124.960365 421.732605,125.368561 
	C422.273102,126.011971 422.933075,125.449364 423.856445,125.174744 
	C426.387360,125.021347 426.815369,123.578445 426.970673,121.727890 
	C427.256317,118.324417 428.911499,116.349083 432.574402,117.323128 
	C435.290955,118.045509 435.749786,116.515556 435.971924,114.458054 
	C436.254120,111.844048 435.366364,109.103363 437.034607,106.339462 
	C439.594879,104.529640 440.865387,106.171997 442.229218,107.693520 
	C447.300171,113.350945 451.311218,119.857483 456.469482,125.442604 
	C460.407257,129.706253 463.154633,129.277298 465.648529,123.675964 
	C466.916321,117.027077 467.065338,110.712875 465.517273,103.961945 
	C466.593689,99.806206 468.469086,101.850883 469.666534,103.240639 
	C471.719788,105.623581 473.277405,108.409729 475.023041,111.039787 
	C480.185272,118.817474 485.775208,126.209732 493.492615,131.700974 
	C494.322906,132.291763 494.997131,133.001816 495.432739,134.326019 
	C494.862183,137.866302 491.919678,138.396362 489.658173,139.599091 
	C486.928528,141.050797 485.472687,142.838882 486.916687,146.362793 
	C486.371246,149.830170 484.090607,151.961029 482.464569,154.413910 
	C480.856598,156.839508 478.215149,156.790405 475.714172,155.822861 
	C470.966980,153.986374 466.243347,154.178268 461.638153,156.072754 
	C457.456726,157.792908 454.706024,156.761948 452.742004,152.659225 
	C451.679840,150.440475 449.865540,148.581924 449.611145,145.588593 
	C450.540588,141.340912 447.967010,139.916214 445.093842,138.689041 
	C437.493683,135.442795 429.517334,134.792572 421.377045,135.198608 
	C419.592987,135.287582 417.755951,135.757843 415.738190,134.501312 
	C415.269073,134.019501 415.116547,133.790131 414.841003,133.160492 
	C414.782684,131.053696 414.904816,129.355423 415.681946,127.358154 
z"/>
<path fill="#F7C4A5" opacity="1.000000" stroke="none" 
	d="
M499.695496,131.224396 
	C501.679565,128.226181 500.594910,125.647820 499.647888,123.274445 
	C497.039124,116.736542 494.197357,110.291618 491.365356,103.421555 
	C494.021423,101.088142 496.042450,102.723885 497.772491,104.567841 
	C500.730438,107.720505 503.363647,111.160172 505.722656,114.789948 
	C508.984894,119.809502 512.337769,124.751564 516.514587,129.082611 
	C517.785400,130.400330 519.192810,131.768402 517.399170,134.103989 
	C511.556213,135.618759 506.060059,135.888809 500.242615,133.839539 
	C499.549194,132.940018 499.420380,132.327103 499.695496,131.224396 
z"/>
<path fill="#DEAC8E" opacity="1.000000" stroke="none" 
	d="
M434.254120,102.411835 
	C432.972351,98.285820 429.992737,96.449333 426.457550,96.143127 
	C422.568298,95.806229 422.053436,99.401962 421.080139,102.142212 
	C420.682495,103.261826 420.228363,104.275398 418.822754,104.977013 
	C418.460571,101.554436 419.317230,98.175369 420.579742,94.935715 
	C422.726837,89.426086 425.298431,88.700470 429.940277,92.299446 
	C435.894501,96.915924 440.335571,102.950043 445.006592,108.762589 
	C449.257416,114.052254 452.836426,119.890396 457.827332,124.575287 
	C460.439728,127.027527 462.955719,127.682655 465.301392,123.638245 
	C466.156860,126.281700 466.099396,129.288864 462.983429,130.568451 
	C460.116852,131.745636 457.864166,129.608109 456.205750,127.564621 
	C451.741211,122.063286 447.540741,116.348320 443.121765,110.808861 
	C441.796478,109.147560 440.097290,107.784576 438.268494,106.132736 
	C436.044312,105.700218 435.387085,104.048454 434.254120,102.411835 
z"/>
<path fill="#DEAC8E" opacity="1.000000" stroke="none" 
	d="
M518.286865,133.607635 
	C509.914032,126.496933 505.668030,116.619781 498.872314,108.731926 
	C496.909027,106.453102 495.057312,104.126701 491.654297,103.123764 
	C490.649567,101.235641 488.861542,98.986740 490.926575,97.677231 
	C492.744202,96.524658 494.545410,98.712234 495.971710,99.971436 
	C500.493958,103.963730 503.630249,109.094017 507.119629,113.935974 
	C510.026154,117.969246 512.815979,122.128036 516.103882,125.835327 
	C520.983215,131.337006 523.597534,131.206116 528.785034,125.986046 
	C529.369507,125.397881 529.970703,124.826302 530.803894,123.992554 
	C531.473755,123.504623 531.929932,123.429855 532.717285,123.699371 
	C533.183472,124.175598 533.344421,124.465897 533.717957,124.889908 
	C535.354614,126.240089 535.600769,127.634575 534.437622,129.537674 
	C531.303406,128.945496 528.608459,129.022461 526.513977,131.873093 
	C525.273682,133.561142 523.377075,134.108200 520.914185,134.138702 
	C519.772461,134.551376 519.112488,134.392548 518.286865,133.607635 
z"/>
<path fill="#DEAC8E" opacity="1.000000" stroke="none" 
	d="
M499.512451,130.820526 
	C499.922058,131.414597 499.962402,132.048798 500.042114,133.158020 
	C499.202637,135.845474 497.604462,136.283813 495.239319,135.184296 
	C486.817688,130.779831 481.979858,123.368217 476.716888,116.424576 
	C474.122589,113.001839 471.947540,109.264236 469.465637,105.751854 
	C468.616577,104.550262 468.283844,102.405731 465.695496,103.327736 
	C464.920349,101.144325 464.384918,98.761131 463.746979,95.921722 
	C467.736176,96.670006 469.044281,99.512917 470.604095,101.862213 
	C475.203522,108.789688 479.542633,115.913055 485.216278,122.037689 
	C489.044678,126.170364 492.904938,130.445831 499.512451,130.820526 
z"/>
<path fill="#D09F82" opacity="1.000000" stroke="none" 
	d="
M543.573730,142.950348 
	C549.590698,151.989334 545.870483,162.120285 535.276367,164.973114 
	C535.441223,160.078766 536.131958,155.171722 535.232788,150.039780 
	C540.251221,150.102386 540.993103,145.708832 543.573730,142.950348 
z"/>
<path fill="#D09F82" opacity="1.000000" stroke="none" 
	d="
M402.031677,164.611603 
	C391.954102,163.094803 386.877960,153.442001 391.939392,145.042603 
	C392.981110,145.998993 393.767090,147.265930 394.772766,148.766510 
	C395.817993,149.676147 396.175873,150.649765 396.799103,151.818146 
	C397.010376,152.399277 397.156281,152.668671 397.620789,152.983826 
	C398.583618,153.445221 399.516113,153.456192 400.203064,154.518036 
	C402.762451,157.603882 401.141876,161.129883 402.031677,164.611603 
z"/>
<path fill="#523729" opacity="1.000000" stroke="none" 
	d="
M400.568909,154.437866 
	C399.595428,154.388367 398.832642,153.979935 397.950195,153.330017 
	C399.941284,151.937927 400.014313,149.945312 400.006714,147.896637 
	C399.991882,143.903229 399.983276,139.909500 400.018677,135.916321 
	C400.037933,133.744583 400.015076,131.518036 402.656555,130.123474 
	C401.442261,134.842072 402.047485,139.841522 401.898041,144.784256 
	C401.803345,147.915710 402.070526,151.091248 400.568909,154.437866 
z"/>
<path fill="#523729" opacity="1.000000" stroke="none" 
	d="
M415.603088,127.125214 
	C415.754028,128.509720 415.585876,130.019791 415.540771,131.891144 
	C415.852203,132.633636 415.837769,133.006943 415.613068,133.673340 
	C415.647644,134.171158 415.689392,134.367981 415.642700,134.853745 
	C415.425751,135.297943 415.297272,135.453186 414.601807,135.770386 
	C410.273132,136.916641 408.874817,133.985703 406.944305,131.399506 
	C407.146973,131.125061 407.562103,131.069382 407.790741,131.249924 
	C411.320099,134.037018 413.536957,133.622192 414.145599,128.788513 
	C414.215057,128.236893 414.889893,127.761505 415.603088,127.125214 
z"/>
<path fill="#382920" opacity="1.000000" stroke="none" 
	d="
M534.453369,129.966415 
	C534.894714,128.396255 534.174561,127.036003 533.965088,125.329620 
	C536.725830,125.935806 535.872131,127.796387 534.995483,129.979736 
	C534.863464,130.330826 534.596680,130.080261 534.453369,129.966415 
z"/>
<path fill="#523729" opacity="1.000000" stroke="none" 
	d="
M405.873047,129.853302 
	C405.206299,130.037994 404.473267,129.916489 403.373779,129.904358 
	C403.667267,128.219101 404.492126,127.413727 405.873047,129.853302 
z"/>
<path fill="#523729" opacity="1.000000" stroke="none" 
	d="
M396.958740,151.728912 
	C396.354187,151.251236 395.735107,150.431519 395.054260,149.305969 
	C396.262360,149.289291 396.888580,150.104782 396.958740,151.728912 
z"/>
<path fill="#382920" opacity="1.000000" stroke="none" 
	d="
M532.939819,123.654724 
	C532.583435,123.840935 532.144470,123.796547 531.374512,123.745110 
	C531.487854,122.707329 531.965881,121.872108 532.939819,123.654724 
z"/>
<path fill="#382920" opacity="1.000000" stroke="none" 
	d="
M534.993225,142.873871 
	C534.744995,142.583786 534.684326,142.112778 534.714600,141.294601 
	C535.345459,141.440109 535.748291,141.962234 534.993225,142.873871 
z"/>
<path fill="#382920" opacity="1.000000" stroke="none" 
	d="
M535.020142,145.886230 
	C534.863647,145.838669 534.803711,145.669205 534.805603,145.237488 
	C535.160095,145.194000 535.243164,145.457016 535.020142,145.886230 
z"/>
<path fill="#222120" opacity="1.000000" stroke="none" 
	d="
M450.987701,144.661560 
	C451.592529,149.323715 455.900787,151.615967 456.324310,156.123077 
	C463.551666,152.139465 470.724152,151.189011 478.028778,154.607666 
	C480.056915,155.556854 480.548676,154.730713 481.236481,153.126495 
	C482.284088,150.683182 483.747681,148.465668 485.850006,146.322998 
	C485.986023,144.416199 486.749847,143.251160 487.924683,142.216629 
	C492.340607,138.328125 501.249451,137.357788 507.009827,140.582779 
	C508.618011,141.809433 509.998260,142.689316 511.401123,143.531464 
	C519.638306,148.476288 523.462646,158.522598 520.636780,167.818481 
	C517.920532,176.753769 509.948334,181.836487 500.278809,182.135757 
	C492.735504,182.369232 487.656219,179.005722 483.189423,173.278137 
	C482.243408,169.561798 478.960663,166.154465 483.527802,162.732880 
	C485.850342,163.363495 486.377136,165.171509 487.174194,166.807831 
	C490.054413,172.720963 494.669739,176.143280 501.388245,175.737808 
	C507.400391,175.374954 511.723083,172.104813 513.818054,166.483490 
	C516.113281,160.324997 514.440979,154.809265 509.821411,149.860825 
	C509.286041,149.643982 509.068390,149.565704 508.516754,149.387665 
	C507.763947,149.092010 507.361237,148.867569 506.693604,148.420914 
	C503.437866,145.558075 500.311768,146.610535 496.881256,148.021545 
	C496.371063,148.277908 496.157562,148.362732 495.606567,148.517761 
	C492.414368,148.130219 490.776764,149.559280 489.480042,151.960571 
	C488.170959,154.384811 486.822906,156.790604 485.351379,159.524048 
	C484.262756,160.715912 483.468292,161.677750 482.755585,162.750107 
	C480.466980,166.193527 480.437744,163.133163 479.777435,161.351974 
	C474.915649,156.694016 469.377228,156.173172 463.454834,157.836563 
	C459.636963,158.908890 457.235443,160.670212 456.479523,165.365494 
	C455.000275,174.553970 449.089325,180.239914 439.406433,182.153900 
	C437.013458,183.375244 434.899475,183.064346 432.383698,182.433838 
	C422.168945,179.555664 415.964539,172.805588 415.062317,163.785797 
	C414.118530,154.350174 418.705231,146.733307 428.509644,141.959229 
	C430.306580,138.643143 433.296539,137.913605 436.268585,138.129120 
	C441.736328,138.525589 447.051331,139.700439 450.987701,144.661560 
z"/>
<path fill="#E33535" opacity="1.000000" stroke="none" 
	d="
M446.556030,198.243378 
	C460.762817,206.807938 474.728333,207.485947 488.836182,199.012665 
	C491.310669,197.526474 493.703583,197.427994 495.289886,200.140503 
	C496.783020,202.693619 495.306519,204.469421 493.208069,205.975418 
	C479.975647,215.471939 457.207275,215.533005 444.114197,206.083984 
	C442.452515,204.884811 440.702698,203.636322 441.323059,201.288177 
	C441.947601,198.924149 443.610901,197.696640 446.556030,198.243378 
z"/>
<path fill="#523729" opacity="1.000000" stroke="none" 
	d="
M507.717651,140.970978 
	C499.770264,140.018906 492.603485,140.363251 486.269348,145.834534 
	C482.992645,142.222855 483.198944,140.396973 487.122894,138.339157 
	C489.437073,137.125534 491.933960,136.260269 494.660645,135.059387 
	C496.474396,134.548401 497.976166,134.216339 499.779724,133.758667 
	C505.750946,132.792603 511.431854,132.594742 517.603760,133.318405 
	C518.713501,133.576218 519.348938,133.842911 520.243896,134.139374 
	C521.835205,135.951675 522.873413,137.793839 521.297485,139.953796 
	C519.791931,142.017349 517.736816,141.739655 515.532715,141.427399 
	C513.119141,141.085449 510.651825,141.122879 507.717651,140.970978 
z"/>
<path fill="#523729" opacity="1.000000" stroke="none" 
	d="
M451.428467,144.943390 
	C449.166565,145.183685 447.730591,144.014282 446.148834,143.141266 
	C440.853607,140.218628 435.363098,139.316315 429.231934,141.837265 
	C426.160492,139.730316 423.216858,141.158218 420.442444,141.482758 
	C416.579620,141.934616 414.362000,140.780197 414.145264,136.294983 
	C414.034790,135.932327 413.991577,135.998032 413.968323,136.029724 
	C414.203613,135.824371 414.450989,135.576279 414.879456,135.137894 
	C415.073517,134.960495 415.026489,135.016724 415.003937,135.045624 
	C415.181641,134.788055 415.359467,134.488388 415.769165,134.127594 
	C427.525848,131.515518 438.537628,132.977722 449.055603,138.189026 
	C451.799866,139.548706 453.989868,141.333054 451.428467,144.943390 
z"/>
<path fill="#DEAC8E" opacity="1.000000" stroke="none" 
	d="
M414.028351,214.407013 
	C414.001648,212.030807 414.063507,209.988037 414.175232,207.515747 
	C417.793488,209.900787 419.879028,213.958115 422.721405,217.377640 
	C433.750580,230.646484 446.662476,241.066467 463.785645,246.169220 
	C444.752533,244.020096 429.216125,235.008499 417.250610,219.789474 
	C416.033844,218.241837 415.153381,216.429794 414.028351,214.407013 
z"/>
<path fill="#DEAC8E" opacity="1.000000" stroke="none" 
	d="
M522.673462,207.052155 
	C524.077637,212.785522 521.674561,217.399750 517.831970,221.739609 
	C508.241516,232.571106 496.949402,240.647018 482.397278,244.436722 
	C483.691620,241.709732 486.950195,241.309723 489.487274,239.900116 
	C501.562531,233.191208 510.589111,223.393967 518.306519,212.221283 
	C519.542847,210.431473 520.659729,208.606293 522.673462,207.052155 
z"/>
<path fill="#201A15" opacity="1.000000" stroke="none" 
	d="
M479.631378,161.403961 
	C483.082642,164.851395 481.479431,158.666321 483.532532,159.124008 
	C485.004089,159.955200 485.007446,161.119247 484.077972,162.691162 
	C480.612701,166.052155 483.241089,169.278885 483.270538,172.693848 
	C480.443726,169.701889 479.678375,165.852127 479.631378,161.403961 
z"/>
<path fill="#F3C9AD" opacity="1.000000" stroke="none" 
	d="
M431.930664,182.484985 
	C434.043945,182.136490 436.099609,182.072556 438.586487,182.106735 
	C439.298279,182.702438 440.202057,183.677414 439.489960,183.687851 
	C436.943939,183.725143 434.105560,185.371124 431.930664,182.484985 
z"/>
<path fill="#766359" opacity="1.000000" stroke="none" 
	d="
M51.060635,30.305244 
	C49.407917,27.044312 50.785595,26.364738 53.430038,27.518152 
	C54.730618,28.085417 55.743263,29.379789 56.798447,30.433044 
	C95.631042,69.194710 134.454926,107.965111 173.265656,146.748672 
	C174.044479,147.526947 175.254089,148.083176 175.093445,149.568222 
	C173.000076,150.409103 171.237686,149.444153 169.175919,148.340240 
	C155.538193,139.105682 145.368118,126.646767 134.148224,115.367371 
	C124.658440,105.827271 115.260643,96.169029 105.859116,86.532722 
	C91.458595,71.772568 77.208527,56.856174 62.449707,42.445816 
	C61.259869,41.284065 60.033669,40.145828 59.068745,38.394867 
	C56.666946,36.296631 54.577904,34.360973 52.306206,32.146835 
	C51.502529,31.588362 51.525486,30.947094 51.060635,30.305244 
z"/>
<path fill="#2D2822" opacity="1.000000" stroke="none" 
	d="
M234.012512,209.331909 
	C234.171448,207.205368 234.342911,205.410141 234.729523,203.301407 
	C238.402145,202.046143 241.266235,204.212021 244.779510,204.877579 
	C249.622467,206.683914 253.719513,208.532654 252.280060,214.794403 
	C251.922699,216.348953 252.666534,218.549103 253.637100,219.941696 
	C256.373657,223.868210 256.337799,227.918594 255.044495,232.605164 
	C247.634079,236.649200 240.972549,236.138794 235.196259,229.266052 
	C236.728195,225.390869 236.326172,222.320862 233.478867,219.280731 
	C230.521866,216.123474 231.914459,212.768036 234.012512,209.331909 
z"/>
<path fill="#533F36" opacity="1.000000" stroke="none" 
	d="
M58.809608,38.571892 
	C60.188499,38.464409 61.018436,39.564377 61.947674,40.493370 
	C96.988403,75.524773 132.023270,110.562050 167.050323,145.607117 
	C167.633469,146.190536 168.110962,146.879547 168.761612,147.834595 
	C162.658386,146.799484 158.066559,143.290527 153.713211,138.570724 
	C141.423019,125.245949 128.563660,112.447136 115.972443,99.398750 
	C97.722931,80.486633 79.513245,61.536102 61.280930,42.607391 
	C60.236958,41.523537 59.155815,40.479683 58.809608,38.571892 
z"/>
<path fill="#463932" opacity="1.000000" stroke="none" 
	d="
M228.240707,203.763245 
	C226.616959,204.032822 225.245773,204.030487 223.463409,204.045532 
	C216.284180,202.210617 210.730606,198.537094 206.156067,193.204102 
	C201.852890,188.187454 195.910507,184.671005 192.568451,178.284500 
	C190.584885,172.103683 186.614822,168.095337 181.282318,165.410767 
	C178.320145,163.919525 175.975967,161.566544 173.039810,160.028931 
	C171.094269,159.010071 169.861679,157.157181 170.678040,154.395050 
	C177.036026,153.009354 181.660950,155.202759 185.653580,159.930405 
	C188.160599,162.898941 190.682953,166.087418 195.038483,167.992432 
	C196.181854,168.208176 196.621124,168.369370 197.321503,168.792175 
	C199.171738,170.284698 199.436646,172.215332 200.204590,174.282089 
	C203.029968,181.556976 207.568054,186.703186 215.084106,189.248245 
	C216.198303,189.131958 216.912033,189.351959 218.011078,189.582062 
	C219.440613,189.925293 220.238297,190.562485 221.097229,191.726288 
	C221.984543,194.916077 224.270538,196.596283 226.105408,198.623734 
	C227.350815,199.999832 229.324875,201.074982 228.240707,203.763245 
z"/>
<path fill="#2D2822" opacity="1.000000" stroke="none" 
	d="
M269.714081,236.820877 
	C272.309418,240.508255 276.504547,240.330627 279.814056,241.846832 
	C281.526398,242.631332 283.618530,243.221207 284.070190,244.897705 
	C285.466248,250.079834 289.672394,252.902420 292.995850,256.475250 
	C295.833496,259.525879 295.630768,261.991821 291.392578,263.937866 
	C288.932770,265.408905 286.933807,264.694855 284.958344,263.667206 
	C283.315674,262.812683 281.803162,261.675659 280.783936,260.195038 
	C276.469757,253.927780 271.667389,248.267807 265.358490,243.765198 
	C262.753967,241.906403 260.560547,238.636246 261.762390,234.365631 
	C262.504852,232.410141 263.007599,230.752960 263.583466,228.854675 
	C265.645508,231.598175 267.541016,234.120056 269.714081,236.820877 
z"/>
<path fill="#38312A" opacity="1.000000" stroke="none" 
	d="
M261.608368,234.038605 
	C264.209930,239.581863 267.321472,244.323685 272.768921,247.223419 
	C275.294830,248.567993 277.096252,250.535004 278.411560,253.259903 
	C280.866394,258.345581 284.667633,262.220062 290.720428,263.868225 
	C291.526825,267.028442 288.059998,268.420319 288.055237,271.608093 
	C285.524597,274.580322 283.707611,271.875854 281.312195,271.090149 
	C277.997437,269.407593 278.297302,266.329193 278.056854,263.682251 
	C277.787567,260.717865 277.021454,258.199493 274.326202,256.134735 
	C268.856628,252.464890 264.478638,247.869858 258.352875,245.687271 
	C256.240570,244.934677 254.514648,242.572342 254.873413,239.337921 
	C254.969864,237.270828 254.997437,235.563385 255.024872,233.429169 
	C255.024719,233.002380 254.998383,232.998199 255.000626,233.011612 
	C257.073456,233.353317 259.144043,233.681625 261.608368,234.038605 
z"/>
<path fill="#5E4C43" opacity="1.000000" stroke="none" 
	d="
M193.728241,176.801758 
	C198.271820,183.665207 204.409348,188.577927 209.713577,194.253189 
	C212.275665,196.994492 215.236038,198.965057 218.805573,200.109634 
	C220.538849,200.665390 222.306335,201.314056 222.983917,203.709259 
	C220.173691,208.216202 217.867035,207.614334 214.407104,204.098236 
	C200.921982,190.394226 187.062439,177.058685 173.159576,163.309998 
	C174.035507,159.368790 175.759842,161.804047 177.244751,162.598358 
	C183.684814,166.043289 189.286896,170.468903 193.728241,176.801758 
z"/>
<path fill="#2A241F" opacity="1.000000" stroke="none" 
	d="
M305.680725,273.213745 
	C307.125336,271.358032 308.664764,270.154846 310.722046,269.106506 
	C312.896149,271.549530 315.840729,271.743469 318.743988,272.756775 
	C319.008057,274.332367 318.879547,275.752594 317.763275,276.589996 
	C314.143188,279.305725 310.619263,281.791504 309.982635,287.013458 
	C309.728607,289.097076 307.010651,289.414642 305.209015,287.618042 
	C303.370117,285.784332 301.087708,284.305176 300.061066,281.371765 
	C299.130096,276.623352 302.565704,275.233673 305.680725,273.213745 
z"/>
<path fill="#30251E" opacity="1.000000" stroke="none" 
	d="
M218.684982,190.760834 
	C217.621094,191.025177 216.839722,191.010178 215.667542,190.986023 
	C209.110901,186.606079 202.945068,182.235336 199.892059,174.456665 
	C198.801437,170.421570 196.922226,167.126450 195.248825,163.754440 
	C194.570984,162.388565 193.786240,161.158630 194.666901,159.310196 
	C199.921555,160.841599 201.802551,165.646896 204.936462,169.638214 
	C207.789474,175.230637 212.627640,178.568237 216.919174,182.346054 
	C219.701874,184.795639 220.937653,187.092987 218.684982,190.760834 
z"/>
<path fill="#3D352E" opacity="1.000000" stroke="none" 
	d="
M233.572510,209.010330 
	C236.751358,209.433197 237.164597,211.534225 237.454422,213.764786 
	C235.937134,215.275681 234.536667,211.314865 233.311707,213.600952 
	C232.506439,215.103760 233.947662,216.389938 234.772858,217.597198 
	C235.519043,218.688889 236.374298,219.709167 237.219482,220.729462 
	C239.951752,224.027771 239.718170,226.722275 235.332474,228.820862 
	C234.484894,228.781570 233.953247,228.587341 233.216507,228.193024 
	C231.834961,223.663055 227.404388,221.143845 226.741272,216.450439 
	C226.390182,213.965668 225.459366,211.580582 227.702850,209.203583 
	C229.723587,209.033691 231.434296,209.026871 233.572510,209.010330 
z"/>
<path fill="#65544A" opacity="1.000000" stroke="none" 
	d="
M193.889343,176.703400 
	C192.026993,177.064102 190.724991,176.155396 189.681107,174.398163 
	C185.982880,168.172775 179.663773,165.476349 173.215271,162.852417 
	C168.932205,159.395096 165.471649,155.253616 161.425018,150.232391 
	C165.478668,150.650162 167.712784,152.690536 170.613602,153.955078 
	C172.808487,158.954529 177.210266,161.206894 181.262329,163.524796 
	C186.744598,166.660843 191.024796,170.699234 193.889343,176.703400 
z"/>
<path fill="#5E4C43" opacity="1.000000" stroke="none" 
	d="
M218.584610,191.158234 
	C218.333023,183.793503 214.018082,179.965073 207.756302,177.537827 
	C204.673935,176.343033 204.789749,173.515259 204.976349,170.392914 
	C212.799942,176.017914 220.189209,182.454987 225.288177,191.449036 
	C225.404877,192.905807 224.816345,193.542465 223.477631,194.099457 
	C222.059708,194.278793 221.215469,193.981354 220.257416,192.947449 
	C219.609100,192.123474 219.187927,191.699875 218.584610,191.158234 
z"/>
<path fill="#2D2822" opacity="1.000000" stroke="none" 
	d="
M227.767212,208.826630 
	C228.014145,214.356003 228.717255,219.363754 233.164032,223.113190 
	C234.530411,224.265274 233.412720,225.884842 233.073288,227.639374 
	C228.901917,224.970718 226.597092,219.961502 221.590836,217.849350 
	C220.167953,217.249039 219.648956,215.394302 220.779419,213.967834 
	C222.589371,211.683929 223.255417,207.835022 227.767212,208.826630 
z"/>
<path fill="#2D2822" opacity="1.000000" stroke="none" 
	d="
M254.578094,238.985535 
	C257.287476,242.517090 260.063873,245.153381 264.469269,246.417480 
	C268.808380,247.662506 271.605896,251.386032 273.955933,255.603699 
	C268.384033,256.356049 265.516724,251.296341 261.083038,249.276993 
	C258.265961,247.993942 255.847687,245.839798 253.237808,244.095367 
	C252.011017,243.275360 250.340256,242.624390 250.625702,240.847031 
	C250.935715,238.916870 252.753494,239.124161 254.578094,238.985535 
z"/>
<path fill="#38312A" opacity="1.000000" stroke="none" 
	d="
M305.711761,272.842133 
	C305.753326,276.759491 301.916534,277.742889 300.162659,280.741211 
	C298.452545,280.718079 297.757660,279.505554 297.631805,278.196136 
	C297.270996,274.441559 295.532867,271.427399 292.676880,268.872314 
	C298.167419,266.906158 302.956665,266.113556 305.711761,272.842133 
z"/>
<path fill="#322B25" opacity="1.000000" stroke="none" 
	d="
M306.896729,295.458679 
	C305.452026,296.996460 304.679565,295.498657 303.712982,295.143311 
	C301.986755,294.508606 299.645599,293.151031 298.502289,294.196289 
	C293.972839,298.337158 292.831879,292.881439 290.275757,291.636230 
	C289.132263,291.079163 289.092926,289.830292 290.243439,289.334656 
	C292.207092,288.488770 294.449554,285.511108 296.342621,288.021729 
	C298.358521,290.695221 300.075562,290.892303 303.052185,290.325928 
	C306.442993,289.680756 308.749207,291.046265 306.896729,295.458679 
z"/>
<path fill="#533F36" opacity="1.000000" stroke="none" 
	d="
M194.663055,158.847565 
	C196.731003,163.864365 199.746643,168.185120 200.847366,173.680725 
	C200.539352,174.539536 200.113052,174.925461 199.202667,175.040039 
	C198.199753,173.506134 197.491501,171.978378 196.533386,170.249146 
	C195.700119,169.674835 195.510605,169.079803 195.183807,168.202515 
	C194.985275,167.954819 194.991745,167.994476 195.011414,168.000732 
	C194.375626,163.444580 190.963974,160.337250 188.675140,156.529892 
	C191.559311,155.212357 192.766464,157.454712 194.663055,158.847565 
z"/>
<path fill="#2D2822" opacity="1.000000" stroke="none" 
	d="
M281.061981,271.383362 
	C281.234772,269.956512 281.479095,268.867798 281.855713,267.189667 
	C283.578857,269.304291 284.380249,272.031128 287.670654,271.963745 
	C288.036102,271.971985 288.015259,271.996552 288.012451,271.988525 
	C288.207764,272.227600 288.422333,272.459564 288.826660,272.838196 
	C288.620667,274.804321 290.107544,277.570465 287.702667,278.220825 
	C285.496857,278.817383 283.979065,276.582031 282.832642,274.711548 
	C282.233917,273.734680 281.697876,272.719391 281.061981,271.383362 
z"/>
<path fill="#30251E" opacity="1.000000" stroke="none" 
	d="
M220.056183,192.931793 
	C220.723129,192.718658 221.416016,192.890244 222.461014,193.113434 
	C226.219421,195.010910 228.352097,198.364746 231.746475,200.744141 
	C230.797592,202.224777 234.974777,205.304703 230.239777,205.225647 
	C229.586548,204.584656 228.996628,204.511307 228.209503,204.180573 
	C227.974823,204.008896 228.002243,204.005646 227.995209,204.020416 
	C227.546432,200.983719 224.811432,199.678543 223.077087,197.615616 
	C221.945099,196.269180 220.355118,195.257080 220.056183,192.931793 
z"/>
<path fill="#3D352E" opacity="1.000000" stroke="none" 
	d="
M245.104675,204.948807 
	C241.541672,206.811035 238.573853,204.999161 235.261887,203.167542 
	C235.107758,200.776688 234.404190,198.220657 237.650635,197.000595 
	C241.652847,198.160583 241.301498,202.852493 244.782990,204.691086 
	C245.043457,204.915253 245.082062,204.941818 245.104675,204.948807 
z"/>
<path fill="#2D2822" opacity="1.000000" stroke="none" 
	d="
M244.969238,204.569733 
	C240.452148,204.624573 239.461929,201.017059 238.149078,197.244110 
	C240.184586,195.366928 241.308533,196.776352 242.197189,198.489304 
	C243.169312,200.363159 244.001724,202.309464 244.969238,204.569733 
z"/>
<path fill="#533F36" opacity="1.000000" stroke="none" 
	d="
M231.964172,200.628738 
	C227.367722,200.623993 225.388214,196.977936 222.923157,193.482605 
	C223.452454,192.873871 224.091766,192.582672 224.999603,192.056305 
	C226.500977,195.422791 230.846207,196.567810 231.964172,200.628738 
z"/>
<path fill="#3D352E" opacity="1.000000" stroke="none" 
	d="
M318.889282,272.644745 
	C315.508820,273.966431 311.971283,275.111084 311.049133,269.402802 
	C314.133698,268.923431 317.007904,269.331421 318.889282,272.644745 
z"/>
<path fill="#2A241F" opacity="1.000000" stroke="none" 
	d="
M270.000671,237.004181 
	C269.904022,234.961807 269.806671,232.915054 269.709320,230.868317 
	C272.185883,232.566666 272.844513,234.471390 270.326355,236.871307 
	C269.991669,236.999802 270.000000,236.999832 270.000671,237.004181 
z"/>
<path fill="#322B25" opacity="1.000000" stroke="none" 
	d="
M301.548523,300.119171 
	C301.477814,300.154083 301.459198,299.851746 301.459198,299.851746 
	C301.459198,299.851746 301.619202,300.084259 301.548523,300.119171 
z"/>
<path fill="#533F36" opacity="1.000000" stroke="none" 
	d="
M50.879013,30.447025 
	C51.192303,30.559549 51.582485,30.943073 52.048111,31.597477 
	C51.734341,31.484913 51.345123,31.101469 50.879013,30.447025 
z"/>
<path fill="#463932" opacity="1.000000" stroke="none" 
	d="
M228.173523,204.225189 
	C228.518326,204.208527 229.061844,204.408173 229.808014,204.822495 
	C229.464539,204.838593 228.918381,204.640030 228.173523,204.225189 
z"/>
<path fill="#38312A" opacity="1.000000" stroke="none" 
	d="
M288.870667,272.797485 
	C288.724823,272.832245 288.484406,272.624359 288.144165,272.178375 
	C288.297729,272.132690 288.541626,272.337524 288.870667,272.797485 
z"/>
<path fill="#DEAB40" opacity="1.000000" stroke="none" 
	d="
M466.491516,257.176697 
	C466.254089,255.143845 466.953033,253.763077 469.692078,254.665497 
	C468.898560,255.604019 467.850891,256.350677 466.491516,257.176697 
z"/>
<path fill="#DEAB40" opacity="1.000000" stroke="none" 
	d="
M462.350830,260.002441 
	C461.735382,259.355103 462.120361,259.149963 462.980804,259.145416 
	C463.119812,259.520569 462.918304,259.772797 462.350830,260.002441 
z"/>
<path fill="#DEAB40" opacity="1.000000" stroke="none" 
	d="
M464.340210,258.205231 
	C464.515686,257.776062 465.007385,257.458710 465.798553,257.110992 
	C465.617493,257.492767 465.136993,257.904907 464.340210,258.205231 
z"/>
<path fill="#DEAB40" opacity="1.000000" stroke="none" 
	d="
M463.333862,259.074829 
	C463.234528,258.837952 463.445770,258.577484 463.867798,258.176880 
	C463.933868,258.374908 463.789124,258.713104 463.333862,259.074829 
z"/>
<path fill="#A4795F" opacity="1.000000" stroke="none" 
	d="
M433.904419,102.449585 
	C436.605865,101.627815 437.734161,102.838959 437.915802,105.616478 
	C438.051117,109.771759 438.119354,113.563408 438.222260,117.354118 
	C438.330322,121.335747 436.682373,121.967590 433.352905,120.144829 
	C428.753113,117.626595 428.710236,117.703995 428.835968,123.200294 
	C428.858582,124.189461 428.903320,125.178360 428.910065,126.167580 
	C428.918213,127.363731 428.788757,128.614120 427.447174,128.995544 
	C425.409607,129.574814 424.932648,128.051056 424.387695,126.202316 
	C423.077057,125.031868 423.012390,123.944794 423.749939,122.363602 
	C423.960999,119.678345 423.896545,117.356781 423.887695,115.035004 
	C423.882172,113.580109 423.438049,111.922775 424.988373,110.950691 
	C426.640228,109.914963 427.762817,111.384636 429.008972,112.056892 
	C430.304504,112.755783 431.536682,113.572205 433.158234,114.556877 
	C434.781128,110.496201 432.197510,106.493179 433.904419,102.449585 
z"/>
<path fill="#F7C4A5" opacity="1.000000" stroke="none" 
	d="
M423.621643,121.995789 
	C424.092102,123.028931 424.182251,124.057861 424.256531,125.472534 
	C423.621033,126.451904 423.198334,127.116692 423.266174,128.035995 
	C423.333496,128.948471 424.003784,130.184830 422.609222,130.550095 
	C421.182068,130.923904 420.563019,129.806320 420.172882,128.636475 
	C419.963379,128.008224 419.872467,127.336426 419.627075,126.724792 
	C417.502747,121.429405 417.495941,121.432144 423.621643,121.995789 
z"/>
<path fill="#F7C4A5" opacity="1.000000" stroke="none" 
	d="
M415.948975,133.621887 
	C415.833160,134.346558 415.639343,134.611389 415.213470,134.975372 
	C413.984161,134.289352 414.877747,133.588806 415.372223,132.554901 
	C415.732880,132.555634 415.801910,132.858826 415.948975,133.621887 
z"/>
<path fill="#F7C4A5" opacity="1.000000" stroke="none" 
	d="
M414.721191,134.854202 
	C414.896545,135.312393 414.719574,135.664291 414.243866,136.038818 
	C414.086365,135.623596 414.227631,135.185745 414.721191,134.854202 
z"/>
<path fill="#F3C9AD" opacity="1.000000" stroke="none" 
	d="
M483.841003,163.357178 
	C483.776459,161.930832 483.836121,160.867676 483.856964,159.406464 
	C484.847198,154.947067 486.844177,151.486435 489.852753,148.520905 
	C491.165283,147.227158 492.521698,146.800232 494.609436,146.983032 
	C496.217896,148.937317 494.843719,150.514267 494.214233,152.147141 
	C492.734314,155.986130 493.237793,159.358566 496.473206,162.039459 
	C499.233643,164.326797 502.342987,164.380737 505.289093,162.553070 
	C508.746460,160.408218 509.298248,157.015152 508.383942,153.339523 
	C507.936707,151.541534 507.243164,149.832260 508.813660,147.937790 
	C515.323364,151.331955 518.309814,157.962982 516.852783,164.946960 
	C515.395447,171.932388 509.399628,177.381317 502.381744,178.098038 
	C495.169739,178.834610 488.301636,174.988113 485.394592,168.457718 
	C484.729095,166.962753 484.431885,165.303802 483.841003,163.357178 
z"/>
<path fill="#F0C7AB" opacity="1.000000" stroke="none" 
	d="
M434.808167,145.366348 
	C443.139893,144.801605 448.215088,148.205246 452.044922,156.637054 
	C454.952240,159.909424 453.246643,163.094269 452.284851,166.617798 
	C446.697144,176.599930 439.036835,180.268250 430.565979,177.266022 
	C420.780273,173.797760 417.207825,164.527145 421.628357,153.010773 
	C423.990814,153.278885 425.444977,154.492722 426.636414,156.599457 
	C427.515350,159.066696 428.990723,160.646545 430.722076,161.973328 
	C434.406982,164.797104 439.050598,164.127274 441.712769,160.461578 
	C444.179169,157.065384 443.139771,151.883438 439.417236,149.534515 
	C438.025818,148.656540 436.336426,148.262466 434.978394,146.679779 
	C434.722351,146.145660 434.669678,145.909912 434.808167,145.366348 
z"/>
<path fill="#304856" opacity="1.000000" stroke="none" 
	d="
M509.064209,147.776794 
	C507.130310,148.775558 508.958923,149.593857 509.346100,150.313232 
	C512.341431,155.878616 511.365112,161.278061 506.701050,164.414719 
	C502.525665,167.222748 496.922913,166.525925 493.543030,162.778183 
	C489.839050,158.671097 490.149475,153.023834 494.315308,148.534103 
	C494.537231,148.294937 494.681335,147.983551 494.929443,147.353516 
	C494.997223,147.001266 495.466522,146.888046 495.707214,146.906296 
	C499.008667,144.450439 502.339203,145.685425 505.984619,146.343414 
	C507.122894,146.644119 507.682678,147.206543 508.698425,147.733673 
	C509.046387,147.893219 509.017395,147.796173 509.064209,147.776794 
z"/>
<path fill="#F3C9AD" opacity="1.000000" stroke="none" 
	d="
M425.626831,157.790863 
	C424.318298,156.459595 423.348480,154.917160 422.169342,153.092285 
	C422.866760,150.777893 424.536560,149.429443 426.505798,147.961212 
	C427.342896,147.595490 427.832275,147.661835 428.498718,148.379211 
	C429.183441,152.100357 427.786041,154.905701 425.626831,157.790863 
z"/>
<path fill="#DEAC8E" opacity="1.000000" stroke="none" 
	d="
M506.875336,147.246582 
	C503.202728,146.587875 499.992950,145.448029 496.340210,146.894714 
	C497.114868,143.066910 500.233673,145.092209 502.461334,144.982437 
	C504.141876,144.899628 505.873657,145.855896 507.858887,146.620972 
	C507.865051,147.073654 507.594971,147.255005 506.875336,147.246582 
z"/>
<path fill="#201A15" opacity="1.000000" stroke="none" 
	d="
M452.369781,166.845322 
	C452.465118,163.929871 453.203522,160.872375 452.221436,157.332413 
	C455.136047,160.013351 454.592407,163.319717 452.369781,166.845322 
z"/>
<path fill="#DEAC8E" opacity="1.000000" stroke="none" 
	d="
M428.396729,149.171463 
	C427.805206,148.695557 427.550079,148.420258 427.053101,147.995880 
	C428.887390,145.854767 431.455414,145.105209 434.620178,144.981903 
	C434.999329,145.058533 434.986938,145.469070 434.983887,145.674423 
	C433.944550,148.915665 431.583954,149.582367 428.396729,149.171463 
z"/>
<path fill="#F3C9AD" opacity="1.000000" stroke="none" 
	d="
M506.700134,147.439240 
	C506.711548,147.036743 506.997314,147.016663 507.709106,146.944443 
	C508.466461,147.042679 508.797791,147.193085 509.087769,147.618347 
	C508.294769,149.636124 507.660675,147.974045 506.700134,147.439240 
z"/>
<path fill="#5E4C43" opacity="1.000000" stroke="none" 
	d="
M198.996429,175.378616 
	C199.383469,174.735519 199.858948,174.437164 200.613113,174.094513 
	C203.599243,179.065887 207.118881,183.358368 211.828705,186.656372 
	C213.158768,187.587753 214.528687,188.605637 215.170715,190.638016 
	C207.001724,188.947083 202.459351,182.955093 198.996429,175.378616 
z"/>
<path fill="#201A15" opacity="1.000000" stroke="none" 
	d="
M195.040192,168.270233 
	C195.336197,168.458847 195.687103,168.962875 196.160767,169.757294 
	C195.887375,169.560318 195.491241,169.072968 195.040192,168.270233 
z"/>
<path fill="#304856" opacity="1.000000" stroke="none" 
	d="
M427.880249,149.282990 
	C429.978180,147.653580 432.026459,146.619720 434.645203,145.988159 
	C442.262878,147.180450 445.963379,151.006424 445.505157,156.760986 
	C445.128845,161.487045 441.669769,165.291229 437.103455,166.000916 
	C432.032837,166.788986 428.236969,164.316818 425.478943,158.278168 
	C425.069641,154.906342 425.742004,152.066254 427.880249,149.282990 
z"/>
</svg>