<svg width="15" height="12" viewBox="0 0 15 12" fill="none" xmlns="http://www.w3.org/2000/svg">
<path d="M7.24282 0.0521079L2.75713 2.90923C2.64626 2.98092 2.51769 3.02048 2.3857 3.02352H0.714282C0.52484 3.02352 0.343155 3.09878 0.209213 3.23272C0.0752568 3.36667 0 3.54836 0 3.7378V7.53778C0 7.72721 0.0752568 7.90889 0.209213 8.04285C0.343155 8.1768 0.52484 8.25206 0.714282 8.25206H2.64284C2.79538 8.25076 2.94477 8.29558 3.07141 8.38063L7.22853 11.3806C7.28153 11.4165 7.3432 11.4375 7.40707 11.4413C7.47096 11.4452 7.5347 11.4318 7.59164 11.4026C7.64859 11.3735 7.69664 11.3295 7.73077 11.2753C7.7649 11.2212 7.78387 11.1589 7.78567 11.0949V0.352106C7.78478 0.289135 7.76725 0.227521 7.73488 0.173507C7.70251 0.119508 7.65643 0.0750078 7.60131 0.0445508C7.5462 0.0140938 7.484 -0.00124906 7.42104 7.95047e-05C7.35809 0.00140807 7.2966 0.019351 7.24282 0.0521079Z" fill="white"/>
<path d="M12.4572 5.76594C12.4629 5.01659 12.2269 4.28534 11.7844 3.68061C11.3418 3.0759 10.7161 2.62993 10.0001 2.40882C9.81057 2.35578 9.60783 2.38016 9.43636 2.47661C9.2649 2.57306 9.13877 2.73366 9.08573 2.9231C9.03269 3.11254 9.05707 3.3153 9.15352 3.48676C9.24997 3.65821 9.41057 3.78434 9.60001 3.83738C10.0137 3.9713 10.3742 4.23284 10.6301 4.58446C10.8858 4.93609 11.0235 5.35972 11.0235 5.79451C11.0235 6.22931 10.8858 6.65294 10.6301 7.00457C10.3742 7.35619 10.0137 7.61773 9.60001 7.75165C9.42449 7.80753 9.27806 7.93034 9.19249 8.09347C9.1069 8.2566 9.08909 8.44689 9.14287 8.62308C9.18869 8.7688 9.28002 8.89594 9.40343 8.98594C9.52684 9.07594 9.67586 9.12394 9.82858 9.12308H10.0429C10.7521 8.89637 11.3696 8.4477 11.8044 7.8432C12.2391 7.23871 12.4679 6.51045 12.4572 5.76594Z" fill="white"/>
<path d="M10.8708 0.208912C10.6889 0.159698 10.4952 0.182784 10.3301 0.27334C10.1649 0.363897 10.0412 0.514882 9.98505 0.694623C9.95677 0.784637 9.94698 0.879437 9.95627 0.973336C9.96555 1.06724 9.99372 1.15828 10.0391 1.24101C10.0845 1.32375 10.1461 1.39645 10.2202 1.45476C10.2945 1.51306 10.3797 1.55578 10.4708 1.58033C11.3936 1.80793 12.2146 2.33587 12.8046 3.08112C13.3946 3.82636 13.7202 4.74661 13.7301 5.69708C13.7398 6.64756 13.4333 7.57434 12.8589 8.33161C12.2844 9.08885 11.4745 9.6337 10.5565 9.88027C10.3671 9.9087 10.1967 10.0113 10.0828 10.1653C9.96892 10.3193 9.92092 10.5123 9.94934 10.7017C9.97775 10.8911 10.0802 11.0615 10.2344 11.1754C10.3884 11.2893 10.5814 11.3373 10.7708 11.3088H10.9851C12.1628 10.942 13.1902 10.2038 13.9138 9.20485C14.6373 8.20579 15.0181 6.99941 14.9993 5.76602C14.9978 4.51954 14.5956 3.30659 13.8522 2.30603C13.1089 1.30548 12.0636 0.570282 10.8708 0.208912Z" fill="white"/>
</svg>
