<svg width="15" height="19" viewBox="0 0 15 19" fill="none" xmlns="http://www.w3.org/2000/svg">
<path d="M12.2953 4.89844C12.314 4.96875 12.3234 5.03906 12.3375 5.10937L12.3515 5.18438V5.19375C12.3984 5.50781 12.4219 5.81719 12.4219 6.14063C12.4219 6.62813 12.3656 7.10156 12.2578 7.55625C11.7234 9.87188 9.89529 11.7 7.57966 12.2344C7.12498 12.3422 6.65154 12.3984 6.16404 12.3984C5.86404 12.3984 5.55466 12.375 5.22185 12.3234L5.0531 12.3609C6.16404 13.0641 7.51873 13.3406 8.85935 13.0969L12.6375 13.9359C12.675 13.9406 12.7078 13.9453 12.7406 13.9453C12.8812 13.9453 13.0125 13.8844 13.1015 13.7719C13.214 13.6359 13.2422 13.4484 13.1672 13.2891L12.1734 11.025C12.8437 10.1203 13.2094 9.00938 13.2094 7.86563C13.2094 6.79688 12.8812 5.76094 12.2953 4.89844Z" fill="white"/>
<path d="M5.28279 11.3859C5.5781 11.4328 5.86873 11.4609 6.16404 11.4609C9.09842 11.4609 11.4844 9.075 11.4844 6.14063C11.4844 5.84063 11.4609 5.55469 11.414 5.26875V5.26406C11.2969 4.57031 11.0437 3.91875 10.6875 3.34219C9.74998 1.82813 8.07186 0.820312 6.16404 0.820312C3.22967 0.820312 0.843729 3.20625 0.843729 6.14063C0.843729 7.28438 1.20935 8.39531 1.87967 9.3L0.881229 11.5594C0.810917 11.7234 0.839042 11.9109 0.951542 12.0469C1.0406 12.1594 1.17185 12.2203 1.31248 12.2203C1.34529 12.2203 1.3781 12.2156 1.4156 12.2063L4.1156 11.6109L5.19373 11.3719C5.22185 11.3766 5.25467 11.3813 5.28279 11.3859ZM8.43279 5.6625C8.6906 5.6625 8.90154 5.87344 8.90154 6.13125C8.90154 6.38906 8.6906 6.6 8.43279 6.6C8.17029 6.6 7.96404 6.38906 7.96404 6.13125C7.96404 5.87344 8.17029 5.6625 8.43279 5.6625ZM6.13592 5.6625C6.39373 5.6625 6.60467 5.87344 6.60467 6.13125C6.60467 6.38906 6.39373 6.6 6.13592 6.6C5.87342 6.6 5.66717 6.38906 5.66717 6.13125C5.66717 5.87344 5.87342 5.6625 6.13592 5.6625ZM3.83904 6.6C3.57654 6.6 3.37029 6.38906 3.37029 6.13125C3.37029 5.87344 3.57654 5.6625 3.83904 5.6625C4.09685 5.6625 4.30779 5.87344 4.30779 6.13125C4.30779 6.38906 4.09685 6.6 3.83904 6.6Z" fill="white"/>
</svg>
