<svg width="16" height="16" viewBox="0 0 16 16" fill="none" xmlns="http://www.w3.org/2000/svg">
<path d="M11.1765 12.287C11.287 12.2982 11.3986 12.2847 11.5032 12.2475C11.6079 12.2103 11.7029 12.1504 11.7816 12.072L14.462 9.38655C14.7327 9.12432 14.9441 8.80716 15.0821 8.45641C15.2579 7.99326 15.2968 7.48927 15.1939 7.00465C15.091 6.52004 14.8508 6.07527 14.502 5.72349L11.7816 3.00308C11.7038 2.92493 11.6097 2.86489 11.506 2.82726C11.4023 2.78962 11.2916 2.77531 11.1818 2.78533C11.072 2.79536 10.9657 2.82949 10.8706 2.88527C10.7754 2.94106 10.6938 3.01714 10.6314 3.1081C10.5328 3.26355 10.4916 3.44855 10.5149 3.63116C10.5382 3.81376 10.6245 3.9825 10.7589 4.10825L13.4418 6.78616H5.75066C5.55172 6.78616 5.36093 6.86519 5.22025 7.00586C5.07958 7.14653 5.00055 7.33733 5.00055 7.53627C5.00055 7.73521 5.07958 7.92601 5.22025 8.06668C5.36093 8.20735 5.55172 8.28638 5.75066 8.28638H13.4393L10.7514 10.9868C10.6251 11.1082 10.5442 11.2693 10.5224 11.4431C10.5005 11.617 10.539 11.7931 10.6314 11.9419C10.6909 12.0364 10.7707 12.1164 10.865 12.1761C10.9593 12.2358 11.0657 12.2737 11.1765 12.287Z" fill="white"/>
<path d="M5.00054 0.00960924C4.96309 0.00679234 4.92548 0.00679234 4.88802 0.00960924L4.52047 0.0671179C3.51902 0.240968 2.59678 0.722979 1.88233 1.44594C1.16788 2.16891 0.696833 3.0968 0.53486 4.10023C0.155209 6.37569 0.155209 8.69832 0.53486 10.9738C0.699056 11.9746 1.17079 12.8995 1.88456 13.6199C2.59834 14.3404 3.51874 14.8208 4.51797 14.9944L4.88302 15.0519C4.99093 15.0687 5.10122 15.0618 5.20616 15.0315C5.31111 15.0013 5.40819 14.9485 5.49061 14.8769C5.59873 14.7827 5.67761 14.6596 5.7179 14.522C5.75819 14.3844 5.75821 14.2382 5.71795 14.1006C5.6777 13.963 5.59886 13.8398 5.49077 13.7456C5.38268 13.6514 5.24987 13.5902 5.10806 13.5692L4.81551 13.5242C4.11497 13.4068 3.46857 13.0736 2.96652 12.5711C2.46448 12.0686 2.13186 11.4219 2.01509 10.7212C1.66401 8.61293 1.66401 6.46108 2.01509 4.35277C2.13139 3.65167 2.4638 3.00441 2.96588 2.50144C3.46796 1.99846 4.11462 1.66489 4.81551 1.54734L5.10806 1.50234C5.307 1.48742 5.49187 1.39408 5.62199 1.24285C5.75211 1.09163 5.81683 0.894907 5.80191 0.695964C5.78699 0.497021 5.69365 0.312154 5.54243 0.182031C5.3912 0.0519075 5.19448 -0.0128123 4.99554 0.0021084L5.00054 0.00960924Z" fill="white"/>
</svg>
