<svg width="15" height="20" viewBox="0 0 15 20" fill="none" xmlns="http://www.w3.org/2000/svg">
<g clip-path="url(#clip0_88_765)">
<path fill-rule="evenodd" clip-rule="evenodd" d="M6.51793 0C8.31943 0 9.94579 0.746336 11.1218 1.96878C12.2977 3.17836 13.0359 4.85119 13.0359 6.70416C13.0359 8.2097 12.548 9.6123 11.7223 10.7318L14.7373 13.833C14.9124 14.0131 15 14.2576 15 14.4892C15 14.7337 14.9124 14.9653 14.7373 15.1583C14.5496 15.3385 14.3244 15.4286 14.0867 15.4286C13.8616 15.4286 13.6239 15.3385 13.4487 15.1583L10.4337 12.0572C9.34529 12.9065 7.98165 13.4083 6.51793 13.4083C4.71643 13.4083 3.09008 12.6491 1.9141 11.4395C0.725605 10.23 0 8.55713 0 6.70416C0 4.85119 0.725605 3.17836 1.9141 1.96878C3.09008 0.746336 4.71643 0 6.51793 0ZM8.44454 9.6123H4.57882C4.35363 9.6123 4.17848 9.43215 4.17848 9.20052V7.70785C4.17848 7.18027 4.37865 6.70416 4.71643 6.35673C4.90409 6.16371 5.12927 6.00929 5.37948 5.91922L5.36697 5.90635C5.07923 5.61039 4.90409 5.18575 4.90409 4.73537C4.90409 4.285 5.06672 3.8861 5.35446 3.59013L5.36697 3.55153C5.66722 3.25557 6.06756 3.07542 6.51793 3.07542C6.9558 3.07542 7.36864 3.25557 7.65638 3.55153V3.5644C7.95663 3.86036 8.13178 4.27213 8.13178 4.73537C8.13178 5.17288 7.95663 5.58465 7.6814 5.88061L7.65638 5.90635V5.91922C7.89408 6.00929 8.10676 6.15084 8.2819 6.33099L8.30692 6.35673C8.6447 6.70416 8.85738 7.18027 8.85738 7.70785V9.20052C8.85738 9.43215 8.66973 9.6123 8.44454 9.6123Z" fill="white"/>
</g>
<defs>
<clipPath id="clip0_88_765">
<rect width="15" height="19.2857" fill="white"/>
</clipPath>
</defs>
</svg>
