<svg width="15" height="15" viewBox="0 0 15 15" fill="none" xmlns="http://www.w3.org/2000/svg">
<path id="userIcon" d="M7.5 0C6.01664 0 4.56659 0.439867 3.33323 1.26398C2.09986 2.08809 1.13856 3.25943 0.570907 4.62987C0.0032496 6.00032 -0.145275 7.50832 0.144114 8.96318C0.433503 10.418 1.14781 11.7544 2.1967 12.8033C3.2456 13.8522 4.58197 14.5665 6.03682 14.8559C7.49168 15.1453 8.99968 14.9968 10.3701 14.4291C11.7406 13.8614 12.9119 12.9001 13.736 11.6668C14.5601 10.4334 15 8.98336 15 7.5C14.998 5.5115 14.2071 3.60503 12.8011 2.19895C11.395 0.792866 9.4885 0.00203635 7.5 0ZM3.43077 12.3615C3.93203 11.7646 4.5535 11.2799 5.25465 10.9393C5.9558 10.5987 6.72089 10.4097 7.5 10.3846C8.27933 10.4068 9.04491 10.5954 9.74541 10.9377C10.4459 11.28 11.0651 11.768 11.5615 12.3692C10.4226 13.3253 8.98317 13.8494 7.49616 13.8494C6.00914 13.8494 4.5697 13.3253 3.43077 12.3692V12.3615ZM4.96923 6.73077C4.96927 6.23763 5.11515 5.75552 5.38852 5.34509C5.66188 4.93466 6.05053 4.61425 6.50555 4.42416C6.96058 4.23407 7.46166 4.1828 7.94575 4.27679C8.42985 4.37079 8.87533 4.60585 9.22615 4.95241C9.57698 5.29897 9.81748 5.74155 9.91739 6.22445C10.0173 6.70736 9.97216 7.20903 9.78765 7.66635C9.60314 8.12366 9.2875 8.5162 8.88044 8.79457C8.47339 9.07293 7.9931 9.2247 7.5 9.23077C6.83758 9.22874 6.20288 8.96469 5.73448 8.49629C5.26607 8.02789 5.00203 7.39318 5 6.73077H4.96923ZM12.3538 11.5462C11.6216 10.7012 10.6913 10.051 9.64616 9.65384C10.2658 9.19568 10.7251 8.5537 10.9586 7.81931C11.1921 7.08492 11.188 6.29558 10.9468 5.56368C10.7056 4.83177 10.2396 4.19463 9.61523 3.74298C8.99083 3.29132 8.23985 3.04818 7.46923 3.04818C6.69861 3.04818 5.94763 3.29132 5.32324 3.74298C4.69885 4.19463 4.23287 4.83177 3.99167 5.56368C3.75047 6.29558 3.74634 7.08492 3.97987 7.81931C4.2134 8.5537 4.67268 9.19568 5.29231 9.65384C4.25586 10.0709 3.32936 10.7211 2.58462 11.5538C1.94267 10.7677 1.49865 9.83907 1.28979 8.84585C1.08094 7.85263 1.11335 6.82381 1.38431 5.8457C1.65527 4.8676 2.15687 3.96876 2.84702 3.22459C3.53718 2.48041 4.39575 1.91263 5.35071 1.56887C6.30566 1.22512 7.32913 1.11542 8.33525 1.24898C9.34136 1.38254 10.3008 1.75546 11.133 2.33646C11.9651 2.91746 12.6459 3.68958 13.1179 4.58804C13.59 5.48649 13.8398 6.48508 13.8462 7.5C13.8488 8.97843 13.3315 10.4107 12.3846 11.5462H12.3538Z" fill="white"/>
</svg>
